<mxfile host="app.diagrams.net" agent="Mozilla/5.0 (Windows NT 10.0; Win64; x64; rv:137.0) Gecko/20100101 Firefox/137.0" version="26.2.13">
  <diagram name="Page-1" id="cBUZtXC7L5Yp3CDypG5L">
    <mxGraphModel dx="1044" dy="711" grid="1" gridSize="10" guides="1" tooltips="1" connect="1" arrows="1" fold="1" page="1" pageScale="1" pageWidth="850" pageHeight="1100" math="0" shadow="0">
      <root>
        <mxCell id="0" />
        <mxCell id="1" parent="0" />
        <mxCell id="ZTxN6ijmJOzzi1mODzTO-1" value="" style="rounded=0;whiteSpace=wrap;html=1;fillColor=#647687;fontColor=#ffffff;strokeColor=#314354;" vertex="1" parent="1">
          <mxGeometry x="40" y="120" width="770" height="520" as="geometry" />
        </mxCell>
        <mxCell id="ZTxN6ijmJOzzi1mODzTO-2" value="&lt;b&gt;&lt;font style=&quot;font-size: 14px; color: light-dark(rgb(255, 255, 255), rgb(237, 237, 237));&quot;&gt;AWS Cloud&lt;/font&gt;&lt;/b&gt;" style="text;html=1;align=center;verticalAlign=middle;whiteSpace=wrap;rounded=0;" vertex="1" parent="1">
          <mxGeometry x="20" y="120" width="130" height="30" as="geometry" />
        </mxCell>
        <mxCell id="ZTxN6ijmJOzzi1mODzTO-3" value="" style="rounded=0;whiteSpace=wrap;html=1;fillColor=#d5e8d4;strokeColor=#82b366;gradientColor=none;" vertex="1" parent="1">
          <mxGeometry x="70" y="160" width="710" height="460" as="geometry" />
        </mxCell>
        <mxCell id="ZTxN6ijmJOzzi1mODzTO-5" value="" style="rounded=0;whiteSpace=wrap;html=1;" vertex="1" parent="1">
          <mxGeometry x="100" y="197" width="650" height="400" as="geometry" />
        </mxCell>
        <mxCell id="ZTxN6ijmJOzzi1mODzTO-6" value="&lt;b&gt;&lt;font style=&quot;font-size: 14px;&quot;&gt;VPC&lt;/font&gt;&lt;/b&gt;" style="text;html=1;align=center;verticalAlign=middle;whiteSpace=wrap;rounded=0;" vertex="1" parent="1">
          <mxGeometry x="100" y="197" width="60" height="30" as="geometry" />
        </mxCell>
        <mxCell id="ZTxN6ijmJOzzi1mODzTO-7" value="" style="rounded=0;whiteSpace=wrap;html=1;" vertex="1" parent="1">
          <mxGeometry x="190" y="260" width="120" height="60" as="geometry" />
        </mxCell>
        <mxCell id="ZTxN6ijmJOzzi1mODzTO-8" value="" style="rounded=0;whiteSpace=wrap;html=1;" vertex="1" parent="1">
          <mxGeometry x="190" y="370" width="120" height="60" as="geometry" />
        </mxCell>
        <mxCell id="ZTxN6ijmJOzzi1mODzTO-9" value="" style="rounded=0;whiteSpace=wrap;html=1;" vertex="1" parent="1">
          <mxGeometry x="190" y="480" width="120" height="60" as="geometry" />
        </mxCell>
        <mxCell id="ZTxN6ijmJOzzi1mODzTO-10" value="" style="rounded=0;whiteSpace=wrap;html=1;" vertex="1" parent="1">
          <mxGeometry x="500" y="260" width="120" height="60" as="geometry" />
        </mxCell>
        <mxCell id="ZTxN6ijmJOzzi1mODzTO-11" value="" style="rounded=0;whiteSpace=wrap;html=1;" vertex="1" parent="1">
          <mxGeometry x="500" y="370" width="120" height="60" as="geometry" />
        </mxCell>
        <mxCell id="ZTxN6ijmJOzzi1mODzTO-12" value="" style="rounded=0;whiteSpace=wrap;html=1;" vertex="1" parent="1">
          <mxGeometry x="500" y="480" width="120" height="60" as="geometry" />
        </mxCell>
        <mxCell id="ZTxN6ijmJOzzi1mODzTO-13" value="Public Subnet" style="text;html=1;align=center;verticalAlign=middle;whiteSpace=wrap;rounded=0;" vertex="1" parent="1">
          <mxGeometry x="215" y="275" width="70" height="30" as="geometry" />
        </mxCell>
        <mxCell id="ZTxN6ijmJOzzi1mODzTO-14" value="Public Subnet" style="text;html=1;align=center;verticalAlign=middle;whiteSpace=wrap;rounded=0;" vertex="1" parent="1">
          <mxGeometry x="525" y="275" width="70" height="30" as="geometry" />
        </mxCell>
        <mxCell id="ZTxN6ijmJOzzi1mODzTO-15" value="&lt;div&gt;Private&lt;/div&gt;&lt;div&gt;Subnet&lt;/div&gt;" style="text;html=1;align=center;verticalAlign=middle;whiteSpace=wrap;rounded=0;" vertex="1" parent="1">
          <mxGeometry x="215" y="385" width="70" height="30" as="geometry" />
        </mxCell>
        <mxCell id="ZTxN6ijmJOzzi1mODzTO-16" value="&lt;div&gt;Private&lt;/div&gt;&lt;div&gt;Subnet&lt;/div&gt;" style="text;html=1;align=center;verticalAlign=middle;whiteSpace=wrap;rounded=0;" vertex="1" parent="1">
          <mxGeometry x="525" y="385" width="70" height="30" as="geometry" />
        </mxCell>
        <mxCell id="ZTxN6ijmJOzzi1mODzTO-18" value="&lt;div&gt;Private&lt;/div&gt;&lt;div&gt;Subnet&lt;/div&gt;" style="text;html=1;align=center;verticalAlign=middle;whiteSpace=wrap;rounded=0;" vertex="1" parent="1">
          <mxGeometry x="215" y="495" width="70" height="30" as="geometry" />
        </mxCell>
        <mxCell id="ZTxN6ijmJOzzi1mODzTO-19" value="&lt;div&gt;Private&lt;/div&gt;&lt;div&gt;Subnet&lt;/div&gt;" style="text;html=1;align=center;verticalAlign=middle;whiteSpace=wrap;rounded=0;" vertex="1" parent="1">
          <mxGeometry x="525" y="495" width="70" height="30" as="geometry" />
        </mxCell>
        <mxCell id="ZTxN6ijmJOzzi1mODzTO-20" value="" style="rounded=0;whiteSpace=wrap;html=1;fillColor=none;dashed=1;dashPattern=8 8;fontColor=#ffffff;strokeColor=#6F0000;" vertex="1" parent="1">
          <mxGeometry x="150" y="240" width="530" height="100" as="geometry" />
        </mxCell>
        <mxCell id="ZTxN6ijmJOzzi1mODzTO-22" value="" style="rounded=0;whiteSpace=wrap;html=1;fillColor=none;dashed=1;dashPattern=8 8;fontColor=#ffffff;strokeColor=#6F0000;" vertex="1" parent="1">
          <mxGeometry x="151" y="469" width="530" height="100" as="geometry" />
        </mxCell>
        <mxCell id="ZTxN6ijmJOzzi1mODzTO-25" value="&lt;b&gt;Zone -1&lt;/b&gt;" style="text;html=1;align=center;verticalAlign=middle;whiteSpace=wrap;rounded=0;" vertex="1" parent="1">
          <mxGeometry x="215" y="215" width="60" height="30" as="geometry" />
        </mxCell>
        <mxCell id="ZTxN6ijmJOzzi1mODzTO-26" value="&lt;b&gt;Zone-2&lt;/b&gt;" style="text;html=1;align=center;verticalAlign=middle;whiteSpace=wrap;rounded=0;" vertex="1" parent="1">
          <mxGeometry x="525" y="215" width="60" height="30" as="geometry" />
        </mxCell>
        <mxCell id="ZTxN6ijmJOzzi1mODzTO-29" value="" style="group" vertex="1" connectable="0" parent="1">
          <mxGeometry x="360" y="267" width="90" height="60" as="geometry" />
        </mxCell>
        <mxCell id="ZTxN6ijmJOzzi1mODzTO-27" value="" style="rounded=1;whiteSpace=wrap;html=1;" vertex="1" parent="ZTxN6ijmJOzzi1mODzTO-29">
          <mxGeometry width="90" height="60" as="geometry" />
        </mxCell>
        <mxCell id="ZTxN6ijmJOzzi1mODzTO-28" value="Route Table" style="text;html=1;align=center;verticalAlign=middle;whiteSpace=wrap;rounded=1;" vertex="1" parent="ZTxN6ijmJOzzi1mODzTO-29">
          <mxGeometry x="15" y="15" width="60" height="30" as="geometry" />
        </mxCell>
        <mxCell id="ZTxN6ijmJOzzi1mODzTO-38" value="&lt;b&gt;&lt;font style=&quot;font-size: 14px;&quot;&gt;Zone&lt;/font&gt;&lt;/b&gt;" style="text;html=1;align=center;verticalAlign=middle;whiteSpace=wrap;rounded=0;" vertex="1" parent="1">
          <mxGeometry x="67" y="164" width="60" height="30" as="geometry" />
        </mxCell>
        <mxCell id="ZTxN6ijmJOzzi1mODzTO-41" value="" style="group" vertex="1" connectable="0" parent="1">
          <mxGeometry x="360" y="380" width="90" height="60" as="geometry" />
        </mxCell>
        <mxCell id="ZTxN6ijmJOzzi1mODzTO-42" value="" style="rounded=1;whiteSpace=wrap;html=1;" vertex="1" parent="ZTxN6ijmJOzzi1mODzTO-41">
          <mxGeometry width="90" height="60" as="geometry" />
        </mxCell>
        <mxCell id="ZTxN6ijmJOzzi1mODzTO-43" value="Route Table" style="text;html=1;align=center;verticalAlign=middle;whiteSpace=wrap;rounded=0;" vertex="1" parent="ZTxN6ijmJOzzi1mODzTO-41">
          <mxGeometry x="15" y="15" width="60" height="30" as="geometry" />
        </mxCell>
        <mxCell id="ZTxN6ijmJOzzi1mODzTO-57" value="Web-sg" style="text;html=1;align=center;verticalAlign=middle;whiteSpace=wrap;rounded=0;" vertex="1" parent="1">
          <mxGeometry x="373" y="239" width="60" height="30" as="geometry" />
        </mxCell>
        <mxCell id="ZTxN6ijmJOzzi1mODzTO-59" value="" style="rounded=0;whiteSpace=wrap;html=1;fillColor=none;dashed=1;dashPattern=8 8;fontColor=#ffffff;strokeColor=#6F0000;" vertex="1" parent="1">
          <mxGeometry x="150" y="350" width="530" height="100" as="geometry" />
        </mxCell>
        <mxCell id="ZTxN6ijmJOzzi1mODzTO-60" value="App-sg" style="text;html=1;align=center;verticalAlign=middle;whiteSpace=wrap;rounded=0;" vertex="1" parent="1">
          <mxGeometry x="375" y="350" width="60" height="30" as="geometry" />
        </mxCell>
        <mxCell id="ZTxN6ijmJOzzi1mODzTO-63" value="Db-sg" style="text;html=1;align=center;verticalAlign=middle;whiteSpace=wrap;rounded=0;" vertex="1" parent="1">
          <mxGeometry x="375" y="473" width="60" height="30" as="geometry" />
        </mxCell>
        <mxCell id="ZTxN6ijmJOzzi1mODzTO-66" value="" style="group" vertex="1" connectable="0" parent="1">
          <mxGeometry x="360" y="503" width="90" height="60" as="geometry" />
        </mxCell>
        <mxCell id="ZTxN6ijmJOzzi1mODzTO-67" value="" style="rounded=1;whiteSpace=wrap;html=1;" vertex="1" parent="ZTxN6ijmJOzzi1mODzTO-66">
          <mxGeometry y="-3" width="90" height="60" as="geometry" />
        </mxCell>
        <mxCell id="ZTxN6ijmJOzzi1mODzTO-68" value="Route Table" style="text;html=1;align=center;verticalAlign=middle;whiteSpace=wrap;rounded=1;" vertex="1" parent="ZTxN6ijmJOzzi1mODzTO-66">
          <mxGeometry x="16" y="12" width="60" height="30" as="geometry" />
        </mxCell>
        <mxCell id="ZTxN6ijmJOzzi1mODzTO-70" value="" style="ellipse;whiteSpace=wrap;html=1;aspect=fixed;" vertex="1" parent="1">
          <mxGeometry x="383" y="170" width="50" height="50" as="geometry" />
        </mxCell>
        <mxCell id="ZTxN6ijmJOzzi1mODzTO-73" value="IGW" style="text;html=1;align=center;verticalAlign=middle;whiteSpace=wrap;rounded=0;" vertex="1" parent="1">
          <mxGeometry x="378" y="180" width="60" height="30" as="geometry" />
        </mxCell>
      </root>
    </mxGraphModel>
  </diagram>
</mxfile>
